<svg width="539" height="512" viewBox="0 0 539 512" fill="none" xmlns="http://www.w3.org/2000/svg">
<g clip-path="url(#clip0_661_1454)">
<path d="M539 0H0V512H539V0Z" fill="#0052FF"/>
<path fill-rule="evenodd" clip-rule="evenodd" d="M80.0078 256C80.0078 355.411 164.846 436 269.5 436C374.154 436 458.992 355.411 458.992 256C458.992 156.589 374.154 76 269.5 76C164.846 76 80.0078 156.589 80.0078 256ZM221.074 198C214.097 198 208.441 203.372 208.441 210V302C208.441 308.628 214.097 314 221.074 314H317.926C324.903 314 330.559 308.628 330.559 302V210C330.559 203.372 324.903 198 317.926 198H221.074Z" fill="white"/>
</g>
<defs>
<clipPath id="clip0_661_1454">
<rect width="539" height="512" fill="white"/>
</clipPath>
</defs>
</svg>
