<svg width="83" height="83" viewBox="0 0 83 83" fill="none" xmlns="http://www.w3.org/2000/svg">
<rect width="83" height="83" rx="18.7652" fill="#161C21"/>
<g clip-path="url(#clip0_276_2788)">
<path d="M41.9339 11C42.1302 11.1762 42.2904 11.3124 42.4385 11.4606C48.4539 17.4706 54.472 23.478 60.4927 29.4827C60.8691 29.8591 60.9612 30.0954 60.5287 30.5159C58.4862 32.5184 56.4557 34.5208 54.4693 36.5874C53.9406 37.132 53.7204 36.7716 53.388 36.4392C49.8076 32.8548 46.2112 29.2864 42.6548 25.678C42.0901 25.1053 41.8058 25.0773 41.2251 25.678C37.7007 29.2824 34.1123 32.7947 30.584 36.3831C30.0113 36.9678 29.731 36.9398 29.1823 36.3831C27.324 34.4527 25.4177 32.5704 23.5033 30.7002C23.0388 30.2436 22.8986 29.9753 23.4513 29.4306C29.4346 23.49 35.4033 17.532 41.3572 11.5567C41.5294 11.3685 41.7137 11.2043 41.9339 11Z" fill="#F1B200"/>
<path d="M60.8852 54.2089C60.761 54.3491 60.6249 54.5133 60.4847 54.6615C54.4693 60.6769 48.462 66.6936 42.4626 72.7116C42.0421 73.1362 41.8178 73.0681 41.4333 72.6836C35.4286 66.6602 29.4146 60.6529 23.3912 54.6615C22.9907 54.261 22.9907 54.0247 23.3912 53.6322C25.3937 51.6538 27.3961 49.6674 29.3746 47.6249C29.9352 47.0442 30.1755 47.3806 30.576 47.761C34.1003 51.3014 37.6607 54.8057 41.149 58.3781C41.8498 59.0989 42.1822 58.9988 42.823 58.346C46.2993 54.8097 49.8356 51.3374 53.3119 47.8011C53.8846 47.2164 54.185 47.2204 54.7456 47.8011C56.6039 49.7315 58.5223 51.6018 60.4126 53.5001C60.5728 53.6923 60.8491 53.8405 60.8852 54.2089Z" fill="#F1B200"/>
<path d="M17.8404 35.1016C18.0366 35.2818 18.1968 35.4219 18.345 35.5701C20.3475 37.5726 22.3139 39.575 24.3284 41.5334C24.7769 41.974 24.7288 42.2143 24.3284 42.6388C22.3259 44.5812 20.3675 46.5436 18.4331 48.542C17.9525 49.0386 17.7002 48.9866 17.2317 48.518C15.2933 46.5156 13.3189 44.5692 11.3404 42.6148C10.984 42.2623 10.8198 42.0381 11.2764 41.5935C13.3189 39.5911 15.3213 37.5686 17.3398 35.5541C17.488 35.4059 17.6482 35.2738 17.8404 35.1016Z" fill="#F1B200"/>
<path d="M42.022 48.9745C41.7257 48.9745 41.6215 48.7743 41.4694 48.6261C39.4669 46.6237 37.4645 44.5812 35.4059 42.5867C34.9854 42.1862 35.0255 41.9499 35.4059 41.5615C37.4431 39.5617 39.4602 37.5445 41.4573 35.51C41.8338 35.1296 42.0501 35.1616 42.4065 35.51C44.409 37.5445 46.4354 39.551 48.4499 41.5695C48.7022 41.8178 49.0226 42.01 48.5981 42.4305C46.4875 44.5091 44.405 46.6116 42.3104 48.7022C42.2343 48.8143 42.1061 48.9025 42.022 48.9745Z" fill="#F1B200"/>
<path d="M66.0395 49.0466C65.8473 48.8744 65.6831 48.7423 65.5349 48.5941C63.5324 46.5916 61.53 44.5491 59.4795 42.5507C59.079 42.1742 59.119 41.9659 59.4795 41.6055C61.538 39.579 63.5805 37.5378 65.607 35.482C65.9434 35.1416 66.1436 35.1496 66.476 35.482C68.5292 37.5645 70.5958 39.6324 72.6756 41.6856C72.98 41.986 72.972 42.1742 72.6756 42.4866C70.5971 44.5411 68.5346 46.6196 66.468 48.6862C66.3439 48.7943 66.2077 48.9025 66.0395 49.0466Z" fill="#F1B200"/>
</g>
<defs>
<clipPath id="clip0_276_2788">
<rect width="61.9039" height="62" fill="white" transform="translate(11 11)"/>
</clipPath>
</defs>
</svg>
