<svg width="90" height="90" viewBox="0 0 90 90" fill="none" xmlns="http://www.w3.org/2000/svg">
<path d="M29.9941 82.5007C32.0652 82.5007 33.7441 80.8218 33.7441 78.7507C33.7441 76.6797 32.0652 75.0007 29.9941 75.0007C27.9231 75.0007 26.2441 76.6797 26.2441 78.7507C26.2441 80.8218 27.9231 82.5007 29.9941 82.5007Z" stroke="white" stroke-width="7.5" stroke-linecap="round" stroke-linejoin="round"/>
<path d="M71.2437 82.5007C73.3147 82.5007 74.9937 80.8218 74.9937 78.7507C74.9937 76.6797 73.3147 75.0007 71.2437 75.0007C69.1726 75.0007 67.4937 76.6797 67.4937 78.7507C67.4937 80.8218 69.1726 82.5007 71.2437 82.5007Z" stroke="white" stroke-width="7.5" stroke-linecap="round" stroke-linejoin="round"/>
<path d="M7.68213 7.68811H15.1821L25.1571 54.2631C25.523 55.9688 26.4721 57.4936 27.841 58.5751C29.2099 59.6565 30.913 60.2269 32.6571 60.1881H69.3321C71.039 60.1853 72.6939 59.6004 74.0235 58.53C75.353 57.4595 76.2776 55.9676 76.6446 54.3006L82.8321 26.4381" stroke="white" stroke-width="7.5" stroke-linecap="round" stroke-linejoin="round"/>
<path d="M37.9902 34.0056L51.3153 47.3306L64.6403 34.0056" stroke="white" stroke-width="6.66251" stroke-linecap="round" stroke-linejoin="round"/>
<path d="M51.3203 14.7805L51.3203 39.906" stroke="white" stroke-width="5.28203" stroke-linecap="round" stroke-linejoin="round"/>
</svg>
