<svg width="79" height="79" viewBox="0 0 79 79" fill="none" xmlns="http://www.w3.org/2000/svg">
<rect width="79" height="79" rx="14" fill="white"/>
<path d="M64.5739 21.4614C60.1595 20.5682 53.0419 19.3601 51.0534 23.5156C44.9761 34.0419 41.487 45.0588 38.8607 49.7857C39.1366 49.9451 51.2413 56.9681 52.0976 57.3835C54.8189 58.7042 59.3623 58.1099 61.2977 54.6191C66.667 44.9353 65.3022 47.4565 71.0071 37.5756C74.6936 31.1902 70.0844 22.5762 64.5739 21.4614Z" fill="#EA4335"/>
<path d="M26.3813 64.1952C23.4172 60.8042 21.2429 54.0201 23.8474 50.2206C31.4561 37.0416 37.547 29.0636 42.3373 21.0667C44.8773 22.5333 55.0549 28.3064 55.7326 28.9012C58.0065 30.8959 59.8903 34.7073 57.835 38.1289C52.1331 47.6208 49.7936 51.9163 43.9983 61.9544C40.3109 68.3414 30.0843 68.4315 26.3813 64.1952Z" fill="#FDBD00"/>
<path d="M53.6727 14.743C47.7431 11.2781 44.6953 11.7322 41.5065 12.2436C38.6074 12.9683 34.6875 15.075 33.0352 17.7816C28.8667 24.6092 24.9184 31.3652 19.8036 40.5206C18.2282 43.3404 19.3976 46.8048 20.8514 48.1797C21.8367 49.1118 29.0861 53.1115 30.4237 53.6866C32.3157 54.5 35.15 53.9341 36.8597 52.1744C37.3318 51.6883 48.1466 33.1125 51.1922 27.6336C52.4777 25.3216 53.6357 24.0422 55.5581 22.8088C59.2719 20.86 62.1715 20.6086 66.6128 22.2327C66.6128 22.2327 56.9466 16.6298 53.6727 14.743Z" fill="#2DA94F"/>
<path d="M15.5202 58.3373C9.55444 54.9346 8.42375 52.0681 7.2722 49.0506C6.45046 46.178 6.31503 41.7297 7.83282 38.945C11.6618 31.9217 11.6342 31.8861 17.0057 22.8786C18.6601 20.1045 22.2451 19.3851 24.1628 19.9565C25.4626 20.3436 32.551 24.622 33.7178 25.4929C35.3685 26.7248 36.2954 29.4623 35.6263 31.823C35.4414 32.4748 28.6653 44.3668 25.4437 49.7442C24.0838 52.0133 23.5549 53.6557 23.4481 55.9371C23.6172 60.1279 24.8491 62.7647 28.4765 65.7991C28.4765 65.7991 18.791 60.2291 15.5202 58.3373Z" fill="#297AEC"/>
</svg>
