<svg width="58" height="58" viewBox="0 0 58 58" fill="none" xmlns="http://www.w3.org/2000/svg">
<g clip-path="url(#clip0_260_383)">
<path d="M56.5151 34.0758C54.4658 25.1745 47.0413 20.473 38.1562 22.4818C31.8848 23.8979 27.9925 28.0998 25.5062 33.7764C23.5318 38.2857 23.3032 43.0317 23.9404 47.8364C24.1872 49.6915 24.8973 51.3888 26.2608 52.7563C28.6601 55.1658 32.164 54.6297 33.5639 51.5425C34.8222 48.7705 35.3421 45.7201 35.0731 42.6878C34.7494 39.0374 33.6529 35.4977 31.8565 32.3036C30.7216 30.2462 30.7964 29.787 32.4816 28.1119C32.6666 27.9139 32.8698 27.7337 33.0885 27.5738C38.5851 23.8393 45.4998 23.7725 49.7602 30.1572C52.1171 33.6894 52.6673 37.6423 52.3558 41.7329C52.0988 45.1336 51.0631 48.2875 49.0562 51.1217C45.8194 55.6897 38.8966 55.9365 35.7326 52.4306C35.6456 52.9404 35.5303 53.3127 35.2309 53.5291C34.6503 53.962 34.8263 54.3141 35.2309 54.7429C36.152 55.731 37.2744 56.5099 38.5223 57.0269C44.4619 59.5335 51.3058 57.0512 54.5629 51.0914C57.4882 45.7203 57.8705 39.9648 56.5151 34.0758ZM31.7817 42.5724C32.1478 44.6238 32.1499 46.661 31.4863 48.6415C31.1343 49.6955 30.7034 50.8668 29.3378 50.8668C27.9723 50.8668 27.4463 49.7825 27.0619 48.6415C26.0929 45.7769 26.538 42.9224 27.1955 40.0963C27.6548 38.1482 28.3633 36.2675 29.3035 34.5006C30.2806 37.2236 31.2901 39.813 31.7817 42.5664V42.5724Z" fill="#F7F3EB"/>
<path d="M0.265032 47.7311C1.63259 50.6281 3.70417 52.5864 6.5364 53.5979C9.90068 54.7915 13.1841 54.6559 15.9576 52.0786C19.0933 49.1655 18.1162 44.7957 14.0195 43.5334C12.0107 42.9123 9.9108 42.5846 7.86148 42.0849C6.25576 41.7067 4.75725 40.9679 3.47961 39.9243C0.141631 37.173 -0.566431 32.9287 1.62855 28.7188C3.7163 24.7152 7.10284 22.3867 11.4685 21.5978C17.4951 20.5074 22.6093 22.3463 26.7302 26.8738C26.977 27.1449 27.6244 27.4139 27.1651 28.0067C26.6735 28.6439 26.2528 28.209 25.7956 27.9197C22.7064 25.9594 19.4433 24.5757 15.6805 24.8852C12.5751 25.1441 9.6559 25.8744 7.30718 28.0977C5.43184 29.8739 4.80672 32.5201 5.65639 34.7292C6.32803 36.4791 7.72797 37.3004 9.38077 37.8163C11.0781 38.3464 12.8725 38.4232 14.586 38.8663C18.191 39.7969 21.0233 41.7612 22.0247 45.5018C23.2587 50.0981 21.4764 54.571 16.9266 56.6446C11.9561 58.9124 4.81886 58.1982 1.25834 53.3774C0.00204635 51.6942 -0.287252 49.8938 0.265032 47.7311Z" fill="#F7F3EA"/>
<path d="M29.1983 22.8723C27.6021 22.8723 26.2831 21.9053 25.6377 20.3718C24.6687 18.0777 25.2008 15.8767 25.9978 13.708C26.557 12.2658 27.3171 10.9098 28.2555 9.68015C28.6601 9.13596 28.917 9.03885 29.4208 9.53247C31.4438 11.5191 32.8802 13.8253 33.222 16.6818C33.4365 18.4702 33.0582 20.1574 31.9212 21.614C31.6103 22.0363 31.1976 22.3732 30.7215 22.5932C30.2454 22.8132 29.7214 22.9092 29.1983 22.8723Z" fill="#E12226"/>
<path d="M29.1983 0C29.7479 0.812867 30.2046 1.68485 30.5598 2.59958C31.0412 3.93275 30.671 5.0879 29.7951 6.13178C29.3419 6.6699 28.911 6.61528 28.4659 6.10547C28.042 5.64674 27.7531 5.07968 27.6314 4.46702C27.5096 3.85435 27.5597 3.21995 27.7761 2.63397C28.1086 1.68662 28.5886 0.797689 29.1983 0Z" fill="#F3D041"/>
<path d="M21.2619 10.1454C19.7568 9.23306 19.5484 7.73805 19.3684 6.06704C21.1689 6.71238 22.7145 7.41639 23.2121 9.34433C22.9997 10.722 22.9775 10.7382 21.2619 10.1454Z" fill="#F5D13B"/>
<path d="M42.1658 14.2663C41.4962 15.2111 40.8569 16.0102 40.0316 16.6677C39.0565 17.4465 37.9579 17.3595 36.8594 17.1997C36.2647 17.1148 36.6976 16.7425 36.7987 16.5402C37.8001 14.5455 39.548 13.7889 42.1658 14.2663Z" fill="#E7D165"/>
<path d="M39.103 5.96184C38.8379 8.73945 37.5473 10.2871 35.0731 10.7948C35.2552 8.05162 36.556 6.48985 39.103 5.96184Z" fill="#E5D067"/>
<path d="M21.4986 16.9929C18.8687 17.4824 17.7135 16.8998 16 14.2436C18.2617 13.4566 20.6105 14.63 21.4986 16.9929Z" fill="#BCFF03"/>
</g>
<defs>
<clipPath id="clip0_260_383">
<rect width="57.2636" height="58" fill="white"/>
</clipPath>
</defs>
</svg>
