<svg width="79" height="79" viewBox="0 0 79 79" fill="none" xmlns="http://www.w3.org/2000/svg">
<rect width="79" height="79" rx="14" fill="white"/>
<path d="M39.5 71.5C57.1731 71.5 71.5 57.1731 71.5 39.5C71.5 21.8269 57.1731 7.5 39.5 7.5C21.8269 7.5 7.5 21.8269 7.5 39.5C7.5 57.1731 21.8269 71.5 39.5 71.5Z" fill="#5F259F"/>
<path d="M54.0237 31.1488C54.0237 29.8979 52.9509 28.8251 51.7 28.8251H47.4099L37.5778 17.563C36.6841 16.4902 35.2541 16.133 33.8241 16.4902L30.4276 17.563C29.8912 17.7421 29.7121 18.4566 30.0703 18.8139L40.7961 29.0042H24.5265C23.9901 29.0042 23.6328 29.3615 23.6328 29.8979V31.6852C23.6328 32.9361 24.7056 34.0089 25.9565 34.0089H28.4593V42.59C28.4593 49.0257 31.8558 52.7803 37.5768 52.7803C39.3642 52.7803 40.7951 52.6012 42.5824 51.8867V57.6078C42.5824 59.2169 43.8334 60.4678 45.4425 60.4678H47.9453C48.4817 60.4678 49.0181 59.9315 49.0181 59.3951V33.8307H53.13C53.6664 33.8307 54.0237 33.4734 54.0237 32.9371V31.1488ZM42.5824 46.5229C41.5097 47.0592 40.0796 47.2384 39.0069 47.2384C36.1468 47.2384 34.7168 45.8083 34.7168 42.59V34.0089H42.5824V46.5229Z" fill="white"/>
</svg>
