<svg width="38" height="22" viewBox="0 0 38 22" fill="none" xmlns="http://www.w3.org/2000/svg">
<path d="M18.952 4.78775C17.5206 4.49812 15.2127 4.10641 14.5679 5.45385C12.5972 8.86714 11.4658 12.4395 10.6143 13.9722C10.7037 14.0239 14.6288 16.3012 14.9065 16.4359C15.7889 16.8642 17.2621 16.6715 17.8897 15.5395C19.6308 12.3995 19.1882 13.217 21.0381 10.013C22.2335 7.94243 20.7389 5.14925 18.952 4.78775Z" fill="#EA4335"/>
<path d="M6.56805 18.6436C5.6069 17.544 4.90185 15.3442 5.7464 14.1122C8.2136 9.83873 10.1886 7.25177 11.742 4.65869C12.5656 5.13426 15.8658 7.00624 16.0855 7.19911C16.8229 7.84592 17.4337 9.08182 16.7673 10.1913C14.9184 13.2691 14.1597 14.662 12.2806 17.917C11.0849 19.9881 7.76878 20.0173 6.56805 18.6436Z" fill="#FDBD00"/>
<path d="M15.4176 2.60864C13.4949 1.4851 12.5066 1.63235 11.4726 1.79817C10.5325 2.03316 9.26145 2.71631 8.72564 3.59395C7.37396 5.80786 6.09369 7.9986 4.43516 10.9673C3.92433 11.8817 4.30351 13.0051 4.77493 13.4509C5.09441 13.7531 7.44511 15.0501 7.87883 15.2365C8.49237 15.5003 9.4114 15.3168 9.96578 14.7462C10.1189 14.5886 13.6257 8.56515 14.6133 6.78858C15.0301 6.03888 15.4056 5.624 16.029 5.22409C17.2332 4.59216 18.1734 4.51064 19.6136 5.03725C19.6136 5.03725 16.4792 3.22046 15.4176 2.60864Z" fill="#2DA94F"/>
<path d="M3.04626 16.7442C1.11179 15.6409 0.745152 14.7114 0.371749 13.7329C0.10529 12.8014 0.0613763 11.359 0.553536 10.456C1.79512 8.17866 1.78619 8.16712 3.52796 5.24635C4.06439 4.34679 5.22689 4.11351 5.84872 4.29882C6.27018 4.42434 8.56868 5.81164 8.94704 6.09406C9.4823 6.49352 9.78284 7.38118 9.56589 8.14665C9.50592 8.35801 7.3087 12.2141 6.26405 13.9578C5.82311 14.6936 5.6516 15.2262 5.61698 15.9659C5.6718 17.3248 6.07126 18.1798 7.24747 19.1638C7.24747 19.1638 4.10686 17.3577 3.04626 16.7442Z" fill="#297AEC"/>
<path d="M26.7917 21.6463C32.6714 21.6463 37.4379 16.8799 37.4379 11.0002C37.4379 5.12046 32.6714 0.354004 26.7917 0.354004C20.912 0.354004 16.1455 5.12046 16.1455 11.0002C16.1455 16.8799 20.912 21.6463 26.7917 21.6463Z" fill="#5F259F"/>
<path d="M31.6235 8.22118C31.6235 7.805 31.2666 7.4481 30.8504 7.4481H29.4232L26.1521 3.70127C25.8548 3.34437 25.379 3.22551 24.9033 3.34437L23.7733 3.70127C23.5948 3.76086 23.5352 3.99859 23.6544 4.11745L27.2228 7.50769H21.81C21.6316 7.50769 21.5127 7.62655 21.5127 7.805V8.39963C21.5127 8.8158 21.8696 9.1727 22.2858 9.1727H23.1184V12.0276C23.1184 14.1687 24.2484 15.4178 26.1518 15.4178C26.7464 15.4178 27.2225 15.3582 27.8171 15.1205V17.0239C27.8171 17.5592 28.2333 17.9754 28.7686 17.9754H29.6013C29.7797 17.9754 29.9582 17.797 29.9582 17.6185V9.11343H31.3262C31.5047 9.11343 31.6235 8.99457 31.6235 8.81612V8.22118ZM27.8171 13.336C27.4602 13.5145 26.9844 13.5741 26.6275 13.5741C25.676 13.5741 25.2002 13.0983 25.2002 12.0276V9.1727H27.8171V13.336Z" fill="white"/>
</svg>
