<svg width="84" height="84" viewBox="0 0 84 84" fill="none" xmlns="http://www.w3.org/2000/svg">
<path d="M27.9937 77.0009C29.9266 77.0009 31.4937 75.4339 31.4937 73.5009C31.4937 71.5679 29.9266 70.0009 27.9937 70.0009C26.0607 70.0009 24.4937 71.5679 24.4937 73.5009C24.4937 75.4339 26.0607 77.0009 27.9937 77.0009Z" stroke="white" stroke-width="7" stroke-linecap="round" stroke-linejoin="round"/>
<path d="M66.4946 77.0009C68.4276 77.0009 69.9946 75.4339 69.9946 73.5009C69.9946 71.5679 68.4276 70.0009 66.4946 70.0009C64.5616 70.0009 62.9946 71.5679 62.9946 73.5009C62.9946 75.4339 64.5616 77.0009 66.4946 77.0009Z" stroke="white" stroke-width="7" stroke-linecap="round" stroke-linejoin="round"/>
<path d="M7.17236 7.17468H14.1724L23.4824 50.6447C23.8239 52.2367 24.7097 53.6598 25.9874 54.6692C27.265 55.6785 28.8545 56.2109 30.4824 56.1747H64.7124C66.3055 56.1721 67.8501 55.6262 69.091 54.6271C70.3319 53.628 71.1949 52.2355 71.5374 50.6797L77.3124 24.6747" stroke="white" stroke-width="7" stroke-linecap="round" stroke-linejoin="round"/>
<path d="M35.4595 26.2329L47.8962 13.7962L60.3329 26.2329" stroke="white" stroke-width="6.21835" stroke-linecap="round" stroke-linejoin="round"/>
<path d="M47.8994 44.1757L47.8994 20.7252" stroke="white" stroke-width="4.92989" stroke-linecap="round" stroke-linejoin="round"/>
</svg>
